<?xml version="1.0" standalone="no"?>
<!DOCTYPE svg PUBLIC "-//W3C//DTD SVG 20010904//EN"
 "http://www.w3.org/TR/2001/REC-SVG-20010904/DTD/svg10.dtd">
<svg version="1.0" xmlns="http://www.w3.org/2000/svg"
 width="500.000000pt" height="500.000000pt" viewBox="0 0 500.000000 500.000000"
 preserveAspectRatio="xMidYMid meet">
<metadata>
Created by potrace 1.11, written by Peter Selinger 2001-2013
</metadata>
<g transform="translate(0.000000,500.000000) scale(0.100000,-0.100000)"
fill="#000000" stroke="none">
<path d="M2475 4913 c-10 -43 -20 -82 -21 -88 -1 -5 -55 -219 -119 -475 -64
-256 -118 -472 -120 -480 -2 -8 -51 -207 -110 -442 l-107 -426 -107 -27 c-58
-15 -113 -28 -121 -30 -8 -2 -224 -56 -480 -120 -256 -64 -472 -118 -480 -120
-42 -9 -787 -197 -800 -201 -11 -4 1035 -273 1235 -318 11 -3 185 -46 387 -96
l366 -92 248 -994 c137 -547 251 -994 254 -994 4 0 41 130 54 195 3 11 35 139
71 285 37 146 69 272 70 280 2 8 58 233 125 500 67 267 123 492 125 500 2 8
16 63 31 121 l28 107 425 107 c234 58 431 108 436 109 75 14 1125 282 1125
286 0 4 -48 18 -107 32 -60 14 -507 126 -994 248 l-886 222 -249 994 c-137
547 -251 994 -255 994 -3 0 -14 -35 -24 -77z"/>
</g>
</svg>
